<svg width="124" height="122" viewBox="0 0 124 122" fill="none" xmlns="http://www.w3.org/2000/svg">
<path fill-rule="evenodd" clip-rule="evenodd" d="M22.5659 15.6263L47.6219 24.6229L61.3499 1L22.5659 15.6263Z" fill="#347AF0" stroke="white" stroke-width="1.5" stroke-linejoin="round"/>
<path fill-rule="evenodd" clip-rule="evenodd" d="M82.3121 37.0754L47.6218 24.6229L61.3498 1L82.3121 37.0754Z" fill="#347AF0" stroke="white" stroke-width="1.5" stroke-linejoin="round"/>
<path fill-rule="evenodd" clip-rule="evenodd" d="M122.632 51.5509L82.3119 37.0754L61.3496 1L101.074 15.6263L122.632 51.5509Z" fill="#347AF0" stroke="white" stroke-width="1.5" stroke-linejoin="round"/>
<path fill-rule="evenodd" clip-rule="evenodd" d="M122.632 51.5511L100.669 68.6665L82.312 37.0757L122.632 51.5511Z" fill="#347AF0" stroke="white" stroke-width="1.5" stroke-linejoin="round"/>
<path fill-rule="evenodd" clip-rule="evenodd" d="M122.632 51.5513L115.027 93.3798L100.668 68.6667L122.632 51.5513Z" fill="#347AF0" stroke="white" stroke-width="1.5" stroke-linejoin="round"/>
<path fill-rule="evenodd" clip-rule="evenodd" d="M115.027 93.3796H71.1074L86.3097 79.8505L100.669 68.6665L115.027 93.3796Z" fill="#347AF0" stroke="white" stroke-width="1.5" stroke-linejoin="round"/>
<path fill-rule="evenodd" clip-rule="evenodd" d="M115.027 93.3794L82.5999 120.835H40.2571L71.1074 93.3794H115.027Z" fill="#347AF0" stroke="white" stroke-width="1.5" stroke-linejoin="round"/>
<path fill-rule="evenodd" clip-rule="evenodd" d="M71.1077 93.3794L40.2574 120.835L35.6418 93.3794H71.1077Z" fill="#347AF0" stroke="white" stroke-width="1.5" stroke-linejoin="round"/>
<path fill-rule="evenodd" clip-rule="evenodd" d="M40.2572 120.835L7.67139 93.3794H35.6424L40.2572 120.835Z" fill="#347AF0" stroke="white" stroke-width="1.5" stroke-linejoin="round"/>
<path fill-rule="evenodd" clip-rule="evenodd" d="M35.6419 93.3796H7.67163L29.3615 56.0493L35.6419 93.3796Z" fill="#347AF0" stroke="white" stroke-width="1.5" stroke-linejoin="round"/>
<path fill-rule="evenodd" clip-rule="evenodd" d="M29.3614 56.0488L7.67156 93.3791L1.00024 51.5505L22.566 15.626L29.3614 56.0488Z" fill="#347AF0" stroke="white" stroke-width="1.5" stroke-linejoin="round"/>
<path fill-rule="evenodd" clip-rule="evenodd" d="M47.6219 24.623L29.3613 56.0493L22.5659 15.6265L47.6219 24.623Z" fill="#347AF0" stroke="white" stroke-width="1.5" stroke-linejoin="round"/>
</svg>
