<svg width="401" height="461" viewBox="0 0 401 461" fill="none" xmlns="http://www.w3.org/2000/svg">
<path d="M0.00372314 11.904L9.5315 19.2465C19.0593 26.479 38.0593 41.329 57.2259 45.6465C76.1982 50.129 95.2815 44.079 114.17 35.3615C133.337 26.4791 152.504 14.929 171.393 7.50405C190.476 0.0790511 209.448 -2.67095 228.615 3.10405C247.615 8.87905 266.67 23.7291 285.837 26.5616C304.754 29.504 323.893 20.7041 342.782 17.7616C361.92 14.9291 380.837 17.679 390.559 19.2465L400.004 20.704V64.704H390.476C380.948 64.704 361.948 64.704 342.782 64.704C323.809 64.704 304.726 64.704 285.837 64.704C266.67 64.704 247.504 64.704 228.615 64.704C209.532 64.704 190.559 64.704 171.393 64.704C152.393 64.704 133.337 64.704 114.17 64.704C95.2537 64.704 76.1148 64.704 57.2259 64.704C38.0871 64.704 19.1704 64.704 9.44817 64.704H0.00372314V11.904Z" fill="#00BBFF"/>
<rect y="63.704" width="400.004" height="397" fill="#00BBFF"/>
</svg>
